<svg width="17" height="15" viewBox="0 0 17 15" fill="none" xmlns="http://www.w3.org/2000/svg">
<g filter="url(#filter0_i_292_2)">
<rect width="4.82037" height="14.1512" rx="2.41018" transform="matrix(-0.794073 -0.607822 0.522025 -0.85293 8.97095 14.9999)" fill="url(#paint0_linear_292_2)"/>
</g>
<rect x="-0.0680121" y="-0.365188" width="4.32037" height="13.6512" rx="2.16018" transform="matrix(-0.794073 -0.607822 0.522025 -0.85293 9.03957 14.2819)" stroke="black" stroke-width="0.5"/>
<path d="M8.72032 13.5492L8.71485 13.5495C8.67194 13.552 8.62762 13.553 8.58459 13.5526C8.53874 13.5523 8.49299 13.5506 8.44848 13.5472C8.40397 13.5438 8.35791 13.5393 8.31334 13.5345C8.31067 13.5335 8.30782 13.5332 8.30501 13.5336C8.26303 13.5273 8.221 13.5195 8.1791 13.5116C8.11228 13.4998 8.04624 13.4836 7.98135 13.4631L7.97988 13.4632C7.91386 13.4436 7.85037 13.421 7.78675 13.3954C7.76556 13.3863 7.74445 13.3788 7.72451 13.3677C7.70457 13.3567 7.68199 13.3497 7.66212 13.3401L7.66072 13.3388C7.63947 13.3283 7.61955 13.3177 7.59993 13.3071C7.58031 13.2965 7.55877 13.2862 7.53908 13.2742C7.50345 13.2542 7.46783 13.2344 7.43362 13.2129C7.34993 13.1588 7.26939 13.0996 7.19242 13.0355C7.16929 13.0164 7.14903 12.9984 7.12731 12.9778C7.11295 12.9655 7.09992 12.953 7.08534 12.9393C7.05928 12.9145 7.033 12.8882 7.00761 12.8619C6.98222 12.8355 6.95809 12.8078 6.93322 12.78C6.90836 12.7523 6.88484 12.7244 6.86271 12.6949C6.84059 12.6654 6.81694 12.635 6.79474 12.6038L6.74129 12.5287L6.72351 12.5033C6.49561 12.1435 6.36466 11.7249 6.34453 11.2918C6.32198 10.8174 6.4356 10.3459 6.67059 9.93887L8.36918 6.97415L8.41167 6.90154L8.47192 6.7957L9.50412 4.99299L9.55106 5.13937L11.4117 10.8771L10.563 12.3579C10.5591 12.3641 10.5565 12.3686 10.5539 12.3732C10.5518 12.3787 10.5487 12.3838 10.5449 12.3882L10.545 12.3898C10.5193 12.4336 10.4922 12.4761 10.4648 12.5171C10.4619 12.5245 10.4575 12.5313 10.452 12.5369C10.4339 12.5657 10.4129 12.5946 10.3921 12.622C10.3595 12.6678 10.324 12.7122 10.2873 12.7553L10.2846 12.7584C10.2564 12.7913 10.2292 12.8215 10.1999 12.8524C10.188 12.8634 10.1761 12.8756 10.1642 12.888C10.143 12.9111 10.1203 12.9315 10.0977 12.9519C10.0918 12.9589 10.0851 12.9652 10.0778 12.9705C10.0566 12.991 10.0343 13.0104 10.0112 13.0284C9.997 13.0422 9.98181 13.0548 9.96575 13.066C9.96581 13.0675 9.96433 13.0675 9.96433 13.0675C9.89141 13.1249 9.81563 13.1781 9.7373 13.2269C9.70222 13.2478 9.6658 13.269 9.6305 13.2885C9.62917 13.2886 9.62925 13.29 9.62792 13.2901C9.58722 13.3115 9.54793 13.3312 9.50725 13.3497C9.46656 13.3681 9.42292 13.3867 9.37936 13.4039C9.3358 13.4211 9.29342 13.4351 9.25106 13.4493C9.20869 13.4634 9.16752 13.4745 9.1265 13.4857C9.12147 13.4862 9.11654 13.4875 9.11184 13.4895C9.06928 13.4993 9.02818 13.5088 8.98548 13.5157C8.94278 13.5225 8.89599 13.5311 8.85041 13.5367C8.80737 13.5426 8.7647 13.5467 8.72032 13.5492Z" fill="black" fill-opacity="0.08"/>
<g filter="url(#filter1_i_292_2)">
<rect width="4.82037" height="13.5398" rx="2.41018" transform="matrix(-0.794075 0.60782 -0.522023 -0.852931 11.6323 12.0701)" fill="#639ACD"/>
</g>
<rect x="-0.329025" y="-0.0612778" width="4.32037" height="13.0398" rx="2.16018" transform="matrix(-0.794075 0.60782 -0.522023 -0.852931 11.01 12.1565)" stroke="black" stroke-width="0.5"/>
<path d="M4.17209 8.68758L3.98696 8.38882L1.363 4.15986C1.13447 3.79178 1.04404 3.39006 1.10351 3.0071C1.16298 2.62414 1.36957 2.27769 1.69637 2.01295C1.70854 2.00325 1.71894 1.99553 1.72753 1.98991C1.9803 1.79142 2.29451 1.64746 2.64572 1.56923C2.99692 1.491 3.37567 1.48062 3.75246 1.53888L3.98818 1.58192C4.36268 1.66858 4.7168 1.82063 5.02308 2.02627C5.32935 2.23192 5.57957 2.48564 5.75434 2.76778L7.12233 5.10992L7.37515 5.42742L8.03017 6.57531L4.25601 8.64263L4.17209 8.68758Z" fill="black" fill-opacity="0.15"/>
<path d="M4.07329 8.41413L1.6417 4.48649L1.64166 4.48642C1.4369 4.15589 1.3303 3.76659 1.33722 3.36941C1.34414 2.97273 1.46394 2.58874 1.67954 2.26744L1.68735 2.25632C1.68907 2.25395 1.68989 2.25293 1.68989 2.25293L1.69616 2.24526L1.70187 2.23702C1.86939 1.99495 2.08671 1.79832 2.33609 1.66141L2.33609 1.66141C2.58406 1.52528 2.85751 1.45157 3.13548 1.44515L8.21161 1.52967L6.32705 4.66587L6.32702 4.66591L4.37669 7.91004L4.37616 7.91053L4.35782 7.94104L4.07329 8.41413Z" fill="#AFF0E8" stroke="black" stroke-width="0.5"/>
<defs>
<filter id="filter0_i_292_2" x="6.02466" y="0.996094" width="9.45215" height="17.0076" filterUnits="userSpaceOnUse" color-interpolation-filters="sRGB">
<feFlood flood-opacity="0" result="BackgroundImageFix"/>
<feBlend mode="normal" in="SourceGraphic" in2="BackgroundImageFix" result="shape"/>
<feColorMatrix in="SourceAlpha" type="matrix" values="0 0 0 0 0 0 0 0 0 0 0 0 0 0 0 0 0 0 127 0" result="hardAlpha"/>
<feOffset dy="4"/>
<feGaussianBlur stdDeviation="2"/>
<feComposite in2="hardAlpha" operator="arithmetic" k2="-1" k3="1"/>
<feColorMatrix type="matrix" values="0 0 0 0 0 0 0 0 0 0 0 0 0 0 0 0 0 0 0.25 0"/>
<feBlend mode="normal" in2="shape" result="effect1_innerShadow_292_2"/>
</filter>
<filter id="filter1_i_292_2" x="1.61792" y="1.5177" width="9.13306" height="16.4861" filterUnits="userSpaceOnUse" color-interpolation-filters="sRGB">
<feFlood flood-opacity="0" result="BackgroundImageFix"/>
<feBlend mode="normal" in="SourceGraphic" in2="BackgroundImageFix" result="shape"/>
<feColorMatrix in="SourceAlpha" type="matrix" values="0 0 0 0 0 0 0 0 0 0 0 0 0 0 0 0 0 0 127 0" result="hardAlpha"/>
<feOffset dy="4"/>
<feGaussianBlur stdDeviation="2"/>
<feComposite in2="hardAlpha" operator="arithmetic" k2="-1" k3="1"/>
<feColorMatrix type="matrix" values="0 0 0 0 0 0 0 0 0 0 0 0 0 0 0 0 0 0 0.25 0"/>
<feBlend mode="normal" in2="shape" result="effect1_innerShadow_292_2"/>
</filter>
<linearGradient id="paint0_linear_292_2" x1="2.41018" y1="0" x2="2.41018" y2="14.1512" gradientUnits="userSpaceOnUse">
<stop stop-color="#282EB3"/>
<stop offset="1" stop-color="#B9BEE9" stop-opacity="0.99"/>
</linearGradient>
</defs>
</svg>
